<svg version="1.0" xmlns="http://www.w3.org/2000/svg"
    width="1125.000000pt" height="1125.000000pt" viewBox="0 0 1125.000000 1125.000000"
    preserveAspectRatio="xMidYMid meet">

    <g transform="translate(0.000000,1125.000000) scale(0.100000,-0.100000)"
        fill="#000000" stroke="none">
        <path
            d="M2610 10755 c-215 -70 -438 -296 -610 -620 -23 -44 -46 -85 -51 -91
-12 -15 -119 -228 -119 -237 0 -4 -9 -27 -21 -50 -11 -23 -34 -78 -51 -122
-17 -44 -36 -93 -43 -110 -8 -16 -19 -48 -26 -70 -6 -22 -19 -58 -27 -80 -8
-22 -18 -53 -22 -70 -8 -28 -23 -72 -41 -120 -4 -11 -17 -65 -29 -120 -11 -55
-25 -114 -31 -131 -5 -17 -9 -62 -9 -101 0 -120 8 -126 295 -239 66 -25 148
-60 183 -75 34 -16 66 -29 70 -29 5 0 27 -9 50 -20 22 -11 45 -20 51 -20 5 0
32 -11 59 -25 28 -14 54 -25 59 -25 8 0 146 -59 258 -109 22 -10 51 -22 65
-26 14 -4 52 -20 85 -35 116 -53 151 -68 210 -90 33 -13 67 -29 76 -37 8 -7
19 -13 22 -13 7 0 73 -28 142 -60 67 -32 207 -96 260 -120 194 -87 269 -126
273 -143 2 -10 -18 -25 -55 -43 -32 -15 -69 -35 -83 -44 -14 -9 -50 -33 -80
-53 -180 -118 -289 -208 -425 -348 -193 -200 -301 -356 -380 -547 -20 -48 -40
-94 -45 -103 -5 -9 -16 -47 -25 -85 -30 -122 -46 -164 -64 -165 -9 0 -57 0
-108 1 -303 4 -575 -148 -721 -403 -12 -21 -22 -45 -22 -53 0 -8 -8 -27 -18
-41 -15 -24 -17 -54 -17 -233 0 -236 4 -255 88 -434 77 -163 74 -174 -75 -335
-80 -86 -114 -138 -150 -226 -32 -78 -37 -99 -67 -278 -10 -62 -6 -163 9 -212
5 -16 11 -46 14 -65 6 -45 16 -78 33 -110 7 -14 13 -32 13 -40 1 -20 63 -131
122 -218 56 -81 198 -221 283 -279 86 -58 257 -143 287 -143 9 0 33 -7 54 -16
28 -12 83 -18 199 -22 88 -2 168 -9 178 -14 15 -8 17 -26 17 -167 0 -151 -1
-158 -22 -178 -13 -11 -32 -25 -43 -31 -30 -15 -164 -32 -253 -32 -75 0 -167
-10 -302 -32 -76 -12 -171 -24 -290 -37 -47 -4 -92 -11 -100 -14 -8 -4 -40 -9
-70 -12 -84 -8 -122 -15 -155 -29 -16 -7 -56 -24 -88 -37 -93 -38 -217 -175
-217 -239 0 -11 -8 -35 -17 -53 -16 -28 -17 -64 -17 -302 1 -179 6 -285 14
-315 7 -25 16 -74 21 -110 12 -98 39 -230 63 -310 10 -30 22 -77 27 -105 6
-27 17 -62 25 -77 8 -15 14 -34 14 -42 0 -30 80 -182 117 -222 82 -88 148
-118 285 -130 85 -7 340 33 598 95 25 5 72 15 105 21 33 6 76 16 95 20 48 13
268 64 388 91 59 13 102 24 172 42 30 8 84 22 120 31 36 9 81 21 100 26 19 5
49 12 65 15 17 4 39 10 50 15 11 5 34 11 50 13 17 3 46 10 65 16 19 6 71 20
115 31 44 12 84 26 90 31 5 5 20 9 34 9 22 0 60 10 116 30 52 19 93 30 111 30
10 0 28 7 38 15 11 8 27 15 36 15 9 0 43 8 76 19 65 21 262 84 309 100 17 5
50 15 75 22 25 7 50 16 55 20 6 4 33 13 60 20 28 6 59 17 70 24 11 7 34 14 50
17 17 3 68 20 115 38 47 18 108 39 135 47 28 8 68 23 90 33 22 11 52 22 68 26
15 3 30 10 33 15 3 5 14 9 25 9 11 0 41 10 67 23 26 13 67 29 92 37 25 7 49
17 55 22 5 4 15 8 22 8 7 0 32 9 56 19 23 11 105 45 181 75 124 50 148 56 210
56 63 0 120 -12 151 -31 6 -4 46 -26 90 -50 44 -23 116 -62 160 -86 165 -89
848 -423 864 -423 5 0 25 -9 43 -19 18 -11 89 -45 158 -76 69 -32 158 -72 198
-91 40 -19 78 -34 85 -34 7 0 17 -4 22 -9 6 -6 64 -33 129 -61 66 -28 134 -57
150 -65 74 -33 284 -128 321 -145 22 -10 74 -33 115 -50 41 -18 104 -46 140
-62 36 -17 101 -46 145 -65 44 -20 109 -49 145 -65 204 -94 229 -105 290 -124
67 -21 187 -28 254 -15 117 22 284 158 392 321 41 61 163 295 184 350 7 19 21
54 31 77 11 24 19 49 19 57 0 8 4 17 9 20 4 3 14 27 21 53 7 27 23 75 35 108
12 33 32 96 44 140 12 44 27 94 33 110 6 17 14 53 20 80 5 28 13 73 18 100 5
28 14 75 20 105 6 30 14 89 18 130 4 41 10 80 14 85 13 21 29 319 19 369 -16
84 -47 102 -266 152 -38 9 -78 20 -87 25 -10 5 -25 9 -35 9 -9 0 -30 4 -47 9
-97 29 -175 50 -206 56 -19 4 -64 16 -100 27 -36 11 -85 26 -110 33 -25 8 -63
17 -85 20 -22 4 -56 12 -75 19 -64 24 -106 36 -127 36 -11 0 -38 7 -59 17 -22
9 -57 20 -79 24 -22 4 -92 24 -155 44 -63 20 -131 40 -150 45 -119 31 -185 51
-194 60 -6 6 -20 10 -32 10 -63 0 -69 26 -21 96 51 76 105 185 123 250 24 88
42 164 48 208 4 21 9 43 13 49 7 12 21 72 29 131 7 51 28 92 59 112 21 14 46
15 177 9 209 -10 301 9 486 103 94 47 213 171 263 274 66 134 64 123 64 373
l0 230 -37 62 c-20 34 -41 79 -47 99 -18 66 24 132 139 217 61 45 84 68 145
142 48 59 115 185 115 215 0 12 6 33 14 48 18 34 36 162 36 250 0 89 -18 237
-34 287 -7 22 -19 58 -25 80 -15 46 -94 206 -124 250 -137 197 -374 379 -567
434 -99 28 -220 51 -268 51 -43 0 -49 18 -26 88 15 46 19 86 18 202 -1 126 -4
154 -26 215 -38 111 -94 202 -177 286 -64 65 -93 85 -181 128 -59 28 -114 51
-125 51 -29 0 -148 50 -170 71 -19 19 -19 19 1 46 12 16 50 48 85 72 303 209
365 259 540 438 190 193 301 347 334 461 9 31 20 71 26 88 25 81 -12 333 -67
461 -8 17 -14 44 -14 60 0 15 -9 48 -20 72 -11 24 -20 51 -20 61 0 9 -9 42
-21 71 -65 167 -96 239 -121 282 -15 26 -28 50 -28 53 0 3 -11 20 -25 38 -14
18 -25 38 -25 43 0 6 -39 52 -87 101 -95 98 -153 132 -225 132 -63 0 -232 -85
-400 -201 -15 -11 -30 -19 -33 -19 -3 0 -39 -21 -80 -47 -41 -27 -93 -59 -116
-73 -23 -14 -81 -50 -128 -81 -47 -30 -120 -76 -161 -101 -166 -100 -561 -345
-652 -404 -37 -24 -71 -44 -76 -44 -5 0 -32 -18 -62 -40 -29 -22 -62 -43 -74
-46 -11 -4 -63 -34 -116 -68 -52 -34 -113 -73 -135 -85 -22 -13 -56 -34 -75
-46 -19 -12 -80 -48 -135 -80 -55 -32 -177 -109 -272 -172 -191 -126 -311
-188 -352 -180 -70 14 -103 28 -162 67 -62 42 -139 99 -149 111 -3 3 -48 34
-100 69 -52 34 -111 76 -131 91 -20 16 -40 29 -44 29 -4 0 -67 39 -139 88 -73
48 -139 92 -147 97 -9 6 -65 42 -125 82 -319 209 -498 324 -550 352 -21 12
-66 40 -99 61 -33 22 -76 48 -96 59 -19 11 -62 37 -95 59 -32 21 -140 88 -239
147 -99 59 -208 125 -242 146 -109 67 -196 122 -263 164 -103 66 -201 114
-290 143 -59 19 -199 23 -250 7z m253 -179 c30 -8 74 -23 99 -35 55 -25 290
-181 410 -274 85 -64 186 -132 622 -417 900 -588 1288 -848 1748 -1171 246
-173 370 -261 388 -276 8 -7 65 -49 125 -93 61 -45 117 -86 125 -93 9 -7 103
-78 210 -159 107 -81 220 -166 250 -189 30 -23 82 -63 115 -88 33 -25 65 -51
72 -58 7 -6 29 -21 50 -34 21 -13 40 -26 43 -29 3 -4 26 -20 51 -38 57 -38
119 -97 146 -137 11 -16 29 -69 41 -116 26 -108 50 -162 102 -228 44 -55 164
-151 191 -151 8 0 19 -4 25 -9 36 -32 260 -47 327 -20 51 20 77 49 77 85 0 18
-6 36 -12 41 -7 4 -65 10 -129 13 -100 5 -123 10 -175 35 -73 35 -172 132
-203 199 -80 172 -31 399 116 537 145 138 415 168 688 77 287 -96 458 -374
390 -634 -23 -91 -67 -172 -139 -259 -39 -47 -66 -89 -66 -103 0 -31 25 -77
52 -96 40 -28 64 -19 135 48 38 34 79 69 93 76 28 15 154 16 202 2 134 -41
181 -58 238 -89 331 -177 510 -480 510 -862 0 -119 -3 -141 -37 -259 -19 -66
-98 -188 -149 -231 -82 -68 -185 -103 -344 -117 -92 -8 -124 -24 -139 -66 -22
-63 26 -128 96 -128 29 0 86 -30 113 -59 29 -31 49 -70 72 -137 20 -62 23 -89
23 -254 l0 -185 -37 -75 c-58 -120 -162 -209 -310 -269 -88 -35 -264 -47 -343
-22 -136 42 -222 104 -294 211 -41 60 -53 89 -72 167 -22 91 20 223 91 287 57
51 107 64 180 44 72 -19 108 -14 116 17 7 30 -8 58 -49 88 -154 115 -358 45
-457 -157 -57 -115 -71 -218 -46 -331 27 -124 55 -184 122 -262 11 -12 27 -32
38 -45 10 -12 45 -50 78 -84 l59 -61 -35 -109 c-20 -60 -41 -125 -47 -144 -35
-115 -73 -205 -165 -395 -34 -71 -66 -142 -69 -157 -15 -59 -30 -58 -245 18
-36 12 -108 37 -160 54 -103 34 -281 97 -365 130 -173 66 -555 220 -603 241
-34 16 -64 29 -67 29 -2 0 -32 13 -67 29 -35 16 -89 40 -120 55 -32 14 -58 32
-58 39 0 7 17 21 38 32 20 10 107 65 192 120 472 308 795 687 888 1040 6 22
17 63 24 90 8 32 13 111 13 215 0 104 -5 183 -13 215 -7 28 -18 68 -24 90 -79
301 -344 640 -728 932 -136 103 -580 400 -685 457 -11 6 -34 21 -52 34 -17 12
-33 22 -36 22 -2 0 -46 25 -96 55 -51 30 -93 55 -95 55 -2 0 -43 24 -92 53
-49 29 -114 67 -144 84 -30 17 -84 47 -120 68 -84 48 -115 66 -170 97 -25 14
-62 35 -82 47 -84 48 -189 106 -258 144 -30 17 -72 41 -92 54 -21 13 -40 23
-42 23 -3 0 -31 15 -63 33 -32 19 -103 58 -158 87 -55 29 -104 56 -110 60 -5
4 -48 28 -95 52 -47 25 -130 69 -185 98 -55 29 -127 67 -160 85 -228 124 -992
506 -1330 665 -44 20 -127 60 -185 88 -58 27 -127 60 -155 72 -49 22 -69 31
-230 104 -230 106 -322 160 -375 223 -37 45 -36 71 4 194 121 371 366 751 579
902 139 97 275 128 410 93z m5792 -141 c22 -13 54 -41 70 -64 17 -22 33 -41
38 -41 4 0 7 -7 7 -15 0 -8 4 -15 9 -15 11 0 111 -196 136 -265 49 -138 55
-162 55 -211 0 -49 -5 -69 -33 -134 -14 -32 -98 -139 -129 -164 -13 -10 -52
-44 -88 -75 -36 -31 -96 -81 -135 -111 -38 -30 -72 -57 -75 -60 -3 -4 -36 -28
-75 -55 -38 -27 -71 -53 -73 -57 -2 -5 -8 -8 -13 -8 -5 0 -17 -7 -26 -15 -32
-26 -376 -245 -443 -281 -19 -10 -37 -21 -40 -24 -3 -3 -14 -10 -25 -16 -11
-6 -81 -45 -155 -86 -74 -41 -155 -86 -180 -100 -25 -14 -63 -35 -85 -48 -22
-12 -71 -39 -110 -60 -38 -21 -112 -61 -164 -89 -52 -28 -96 -51 -98 -51 -3 0
-41 -27 -84 -60 -150 -113 -201 -131 -265 -96 -16 8 -64 46 -106 84 -42 38
-112 95 -155 128 -43 32 -80 61 -83 64 -18 20 -121 85 -196 125 -124 66 -225
136 -251 175 -42 61 -22 113 56 149 34 16 110 60 185 106 44 28 164 99 206
123 86 49 341 198 405 237 73 44 329 196 380 225 17 10 100 59 185 110 85 51
164 98 175 104 35 20 136 80 173 104 21 12 44 25 52 29 8 4 38 22 67 40 29 18
55 33 58 33 4 0 26 14 50 30 24 17 46 30 49 30 3 0 30 16 60 35 30 19 60 35
66 35 5 0 10 5 10 10 0 6 4 10 10 10 5 0 34 16 64 35 30 19 57 35 59 35 3 0
51 28 108 63 202 123 259 136 354 82z m459 -947 c3 -13 6 -58 6 -100 0 -110
-38 -205 -120 -298 -12 -14 -38 -45 -58 -69 -51 -61 -258 -249 -376 -343 -96
-76 -310 -223 -391 -268 -22 -13 -60 -34 -84 -48 -25 -14 -66 -37 -92 -53 -49
-28 -395 -199 -484 -239 -27 -12 -79 -36 -115 -52 -203 -94 -247 -104 -323
-68 -47 22 -137 104 -136 123 0 7 20 28 45 47 24 19 50 41 58 48 8 6 19 12 24
12 6 0 12 4 14 9 2 5 116 64 253 132 138 67 268 134 290 147 22 14 65 39 95
55 30 17 85 50 123 74 37 24 69 43 72 43 3 0 36 20 75 45 39 25 72 45 74 45 7
0 246 153 366 233 232 156 458 341 585 479 64 70 89 82 99 46z m-7181 -447
c63 -30 175 -81 282 -131 182 -84 318 -149 790 -375 189 -90 1159 -574 1380
-688 248 -128 457 -237 470 -247 6 -4 62 -34 125 -67 63 -33 131 -69 150 -80
19 -11 71 -39 115 -63 82 -44 134 -72 195 -107 19 -11 80 -43 135 -73 116 -61
210 -112 280 -150 28 -15 84 -45 126 -67 41 -22 86 -47 100 -55 13 -9 49 -29
79 -45 358 -194 745 -466 936 -660 90 -90 180 -199 228 -273 16 -25 37 -56 46
-70 43 -66 100 -204 131 -318 27 -98 30 -335 6 -422 -71 -256 -202 -468 -422
-680 -95 -92 -89 -87 -150 -135 -27 -22 -56 -45 -63 -52 -26 -25 -360 -242
-442 -287 l-85 -47 -185 93 c-102 51 -186 96 -188 101 -2 4 -12 7 -23 7 -14 0
-19 7 -19 25 0 14 6 25 13 25 31 0 218 103 342 188 113 78 176 131 285 241
191 192 279 338 334 557 19 73 22 301 5 372 -97 416 -325 673 -1133 1275 -134
100 -297 219 -362 263 -128 88 -462 304 -469 304 -3 0 -36 20 -75 45 -39 25
-72 45 -75 45 -2 0 -26 13 -53 29 -59 35 -131 76 -197 111 -27 15 -70 39 -95
53 -91 52 -241 129 -485 250 -244 121 -308 152 -464 224 -42 19 -103 47 -136
63 -33 15 -82 38 -110 50 -27 12 -78 35 -113 51 -35 16 -65 29 -67 29 -3 0
-28 11 -57 24 -104 47 -144 64 -208 91 -63 26 -96 40 -162 69 -18 8 -112 47
-208 86 -96 39 -188 77 -205 85 -16 7 -118 48 -225 92 l-195 79 2 39 c2 34 14
92 29 143 5 18 18 15 87 -17z m2000 -1382 c152 -77 397 -208 562 -302 39 -22
88 -50 110 -62 22 -13 89 -53 148 -89 59 -36 112 -66 117 -66 26 0 6 -40 -32
-65 -173 -114 -534 -449 -673 -625 -33 -41 -62 -77 -65 -80 -14 -13 -160 -219
-160 -226 0 -4 -6 -15 -14 -23 -22 -25 -63 -98 -118 -211 -65 -135 -63 -129
-97 -237 -184 -571 39 -1069 669 -1494 52 -35 104 -69 115 -75 11 -6 63 -36
115 -66 52 -29 127 -69 165 -87 255 -123 357 -171 360 -171 3 0 29 -11 60 -25
145 -66 186 -84 260 -116 11 -4 55 -24 98 -44 43 -19 80 -35 83 -35 2 0 26
-10 52 -21 62 -28 93 -41 172 -74 36 -15 80 -33 98 -41 77 -33 100 -43 152
-64 30 -12 69 -28 85 -35 17 -8 77 -32 135 -54 58 -23 114 -45 125 -50 71 -30
81 -33 215 -86 130 -50 132 -51 160 -63 14 -5 52 -20 85 -32 33 -13 74 -29 90
-35 17 -7 55 -22 85 -33 137 -51 422 -156 485 -178 39 -14 78 -29 87 -35 10
-5 25 -9 33 -9 8 0 23 -4 33 -10 9 -5 64 -25 122 -45 58 -20 114 -40 125 -45
11 -5 54 -20 95 -34 41 -14 167 -57 280 -96 680 -234 1238 -412 1338 -427 18
-3 35 -9 38 -14 3 -5 16 -9 29 -9 13 0 27 -4 30 -10 3 -5 13 -10 22 -10 19 0
132 -56 157 -78 14 -14 17 -26 13 -62 -14 -119 -95 -409 -143 -517 -8 -17 -14
-34 -14 -37 0 -9 -58 -135 -97 -211 -35 -67 -45 -86 -94 -172 -42 -74 -111
-163 -168 -215 -150 -140 -288 -148 -521 -34 -14 7 -97 49 -185 93 -147 74
-255 126 -425 205 -202 94 -294 136 -380 173 -80 35 -140 61 -235 105 -33 15
-82 38 -110 50 -27 12 -79 36 -115 52 -36 17 -90 41 -120 55 -30 14 -89 41
-130 60 -93 43 -701 347 -790 395 -36 19 -110 59 -165 88 -55 29 -120 64 -145
78 -25 13 -88 47 -140 75 -52 28 -116 63 -143 79 -26 15 -49 28 -51 28 -1 0
-56 29 -121 65 -64 36 -119 65 -121 65 -3 0 -21 11 -42 24 -20 12 -73 42 -117
66 -154 82 -250 133 -305 163 -30 16 -102 54 -160 84 -58 31 -109 59 -115 63
-5 4 -41 25 -80 45 -38 21 -94 53 -123 72 -29 18 -55 33 -57 33 -3 0 -63 37
-133 83 -137 89 -182 134 -202 200 -54 173 -178 300 -360 368 -20 8 -79 13
-145 14 -140 0 -195 -16 -241 -69 -39 -45 -42 -66 -14 -91 20 -18 25 -18 192
1 44 5 71 1 124 -16 119 -38 204 -114 255 -226 26 -56 29 -75 29 -161 0 -144
-38 -240 -135 -338 -77 -77 -90 -87 -166 -123 -96 -46 -173 -62 -290 -62 -244
0 -447 95 -559 260 -37 55 -51 86 -79 171 -14 45 -14 209 0 263 15 55 55 138
101 210 47 73 48 104 7 145 -57 58 -116 37 -181 -64 -51 -79 -94 -105 -173
-105 -71 0 -228 31 -335 67 -511 169 -781 737 -563 1183 66 137 205 248 349
280 103 23 174 73 174 122 0 43 -29 64 -105 77 -86 15 -115 30 -158 83 -99
120 -153 322 -128 470 26 149 76 253 166 344 176 178 463 214 665 83 99 -64
166 -147 199 -249 34 -103 24 -185 -31 -267 -52 -77 -129 -112 -208 -93 -40
10 -53 9 -79 -4 -17 -9 -31 -21 -31 -27 0 -17 83 -94 122 -112 57 -27 133 -22
194 13 98 56 182 181 205 305 12 63 6 216 -10 257 -34 88 -49 119 -83 169 -20
31 -73 89 -118 129 -76 69 -80 75 -80 115 0 105 65 326 137 470 42 83 146 243
190 290 10 11 45 51 78 88 66 76 225 219 354 318 46 35 107 82 135 103 55 42
156 106 169 106 4 0 62 -28 130 -61z m1246 -724 c243 -164 250 -169 250 -180
0 -5 -43 -38 -97 -72 -53 -34 -106 -69 -117 -77 -374 -291 -574 -515 -709
-798 -90 -189 -122 -346 -110 -533 6 -92 8 -103 45 -215 78 -234 312 -488 680
-736 202 -135 349 -218 814 -459 94 -49 195 -101 225 -115 97 -48 263 -127
315 -150 28 -13 75 -34 105 -47 30 -14 69 -31 85 -38 17 -7 50 -22 75 -32 141
-62 564 -228 655 -258 28 -9 59 -20 70 -25 45 -20 499 -173 625 -210 41 -12
100 -31 130 -41 69 -23 310 -94 410 -120 41 -11 77 -22 80 -24 3 -2 42 -13 85
-25 97 -26 124 -34 195 -54 130 -36 288 -78 320 -86 38 -9 232 -60 320 -84 30
-8 66 -18 80 -21 141 -34 184 -47 195 -61 13 -15 2 -171 -13 -186 -6 -6 -49 3
-118 26 -60 19 -140 45 -179 56 -38 12 -128 41 -200 64 -71 24 -211 69 -310
101 -99 32 -189 61 -200 65 -11 5 -146 49 -300 100 -154 50 -289 95 -300 100
-11 5 -101 36 -200 69 -99 33 -229 78 -290 99 -60 22 -153 54 -205 71 -108 37
-225 78 -255 91 -19 8 -80 30 -255 91 -47 17 -94 34 -105 38 -11 5 -47 19 -80
31 -33 12 -76 28 -95 35 -19 7 -62 23 -95 35 -33 12 -69 26 -80 30 -11 5 -76
29 -145 55 -69 26 -134 50 -145 55 -11 5 -51 20 -90 35 -38 14 -80 30 -92 36
-43 18 -78 32 -98 39 -33 13 -209 81 -230 90 -11 4 -47 18 -80 30 -33 12 -71
26 -85 32 -14 5 -56 21 -95 35 -68 23 -82 29 -135 51 -14 5 -56 22 -95 37 -38
15 -89 36 -112 46 -24 11 -46 19 -51 19 -5 0 -32 11 -60 25 -29 14 -54 25 -57
25 -16 0 -301 139 -399 195 -273 154 -469 309 -627 495 -82 96 -169 233 -169
265 0 7 -4 15 -8 17 -4 2 -16 28 -26 58 -67 205 -62 401 16 635 26 76 86 212
110 247 10 14 18 28 18 31 0 3 21 41 46 84 192 325 526 683 914 980 30 23 60
42 67 43 6 0 88 -52 182 -115z m585 -417 c370 -283 585 -477 717 -648 56 -73
139 -221 139 -248 0 -5 8 -24 18 -43 14 -28 17 -61 17 -194 0 -153 -1 -162
-28 -218 -15 -32 -27 -61 -27 -66 0 -4 -31 -55 -69 -112 -126 -190 -331 -365
-586 -500 -134 -70 -167 -86 -269 -124 l-69 -25 -66 43 c-36 23 -79 49 -94 57
-16 8 -109 68 -207 135 -230 154 -374 286 -463 423 -102 157 -112 190 -112
362 0 125 3 155 23 214 90 268 301 532 609 762 84 62 185 131 225 153 41 21
89 48 108 60 19 11 42 21 50 21 9 0 47 -24 84 -52z m-1402 -3662 c29 -12 76
-41 103 -62 146 -115 330 -226 560 -338 379 -184 465 -232 509 -280 25 -29 38
-65 30 -90 -15 -49 -59 -76 -194 -116 -41 -12 -100 -30 -130 -40 -30 -10 -89
-28 -130 -40 -110 -33 -162 -50 -185 -60 -42 -18 -529 -189 -620 -217 -27 -8
-59 -19 -70 -23 -45 -17 -238 -77 -325 -101 -38 -11 -57 -16 -170 -49 -121
-35 -486 -131 -575 -152 -22 -5 -56 -13 -75 -17 -19 -5 -57 -14 -85 -20 -27
-6 -95 -22 -150 -36 -55 -14 -122 -30 -150 -35 -27 -6 -68 -14 -90 -19 -22 -5
-62 -14 -90 -20 -63 -13 -220 -48 -305 -67 -36 -8 -99 -21 -140 -29 -41 -8
-97 -20 -125 -25 -278 -57 -411 -33 -499 89 -58 80 -73 132 -137 451 -12 58
-25 121 -30 140 -48 210 -49 232 -16 281 26 39 94 67 167 68 85 2 410 70 630
132 19 6 51 14 70 19 69 17 217 62 345 105 66 21 247 103 329 147 11 6 45 12
76 15 51 5 67 1 176 -45 170 -72 218 -84 375 -89 104 -4 154 -1 210 11 174 39
314 111 405 208 39 42 54 69 73 128 34 108 60 157 95 180 41 26 74 25 138 -4z
m-1657 -96 c14 -22 25 -43 25 -47 0 -5 18 -32 40 -61 22 -29 40 -58 40 -65 0
-6 -21 -20 -48 -30 -26 -11 -56 -23 -67 -27 -34 -14 -227 -86 -280 -105 -27
-9 -59 -21 -70 -25 -11 -4 -51 -17 -90 -29 -38 -12 -104 -32 -145 -45 -72 -22
-220 -60 -440 -112 -58 -14 -121 -29 -140 -34 -19 -5 -57 -14 -85 -20 -27 -6
-66 -16 -85 -21 -19 -6 -51 -11 -70 -12 l-35 -2 -3 50 c-4 60 14 178 34 220
26 56 80 104 134 119 62 18 101 27 190 46 52 11 127 26 165 35 39 9 93 20 120
25 28 6 68 14 90 19 22 5 76 16 120 26 44 9 127 28 185 41 58 14 146 35 195
46 50 12 108 27 130 34 58 19 62 18 90 -26z" />
    </g>
</svg>